<svg width="18" height="18" viewBox="0 0 18 18" fill="none" xmlns="http://www.w3.org/2000/svg">
<path d="M11.0173 11.1209C11.5753 10.5629 11.8544 9.88954 11.8544 9.10085C11.8544 8.31216 11.5753 7.63879 11.0173 7.08076C10.4593 6.52272 9.7859 6.24371 8.99721 6.24371C8.20852 6.24371 7.53516 6.52272 6.97712 7.08076C6.41909 7.63879 6.14007 8.31216 6.14007 9.10085C6.14007 9.88954 6.41909 10.5629 6.97712 11.1209C7.53516 11.679 8.20852 11.958 8.99721 11.958C9.7859 11.958 10.4593 11.679 11.0173 11.1209ZM12.111 5.98701C12.9667 6.84266 13.3945 7.88061 13.3945 9.10085C13.3945 10.3211 12.9667 11.359 12.111 12.2147C11.2554 13.0703 10.2174 13.4982 8.99721 13.4982C7.77697 13.4982 6.73903 13.0703 5.88337 12.2147C5.02772 11.359 4.59989 10.3211 4.59989 9.10085C4.59989 7.88061 5.02772 6.84266 5.88337 5.98701C6.73903 5.13135 7.77697 4.70353 8.99721 4.70353C10.2174 4.70353 11.2554 5.13135 12.111 5.98701ZM14.2985 3.79951C14.4994 4.0004 14.5999 4.24222 14.5999 4.52496C14.5999 4.80769 14.4994 5.04951 14.2985 5.2504C14.0977 5.45129 13.8558 5.55174 13.5731 5.55174C13.2904 5.55174 13.0485 5.45129 12.8477 5.2504C12.6468 5.04951 12.5463 4.80769 12.5463 4.52496C12.5463 4.24222 12.6468 4.0004 12.8477 3.79951C13.0485 3.59862 13.2904 3.49817 13.5731 3.49817C13.8558 3.49817 14.0977 3.59862 14.2985 3.79951ZM9.84542 2.0696C9.33203 2.0696 9.04929 2.0696 8.99721 2.0696C8.94513 2.0696 8.65867 2.0696 8.13784 2.0696C7.62444 2.06216 7.23382 2.06216 6.96596 2.0696C6.6981 2.0696 6.33724 2.08076 5.88337 2.10308C5.43694 2.11796 5.05376 2.15516 4.73382 2.21469C4.42132 2.26677 4.15718 2.33373 3.94141 2.41558C3.56938 2.56439 3.242 2.78016 2.95926 3.0629C2.67653 3.34564 2.46075 3.67302 2.31194 4.04504C2.2301 4.26082 2.15941 4.52868 2.09989 4.84862C2.04781 5.16112 2.0106 5.5443 1.98828 5.99817C1.9734 6.4446 1.96224 6.80174 1.9548 7.0696C1.9548 7.33746 1.9548 7.7318 1.9548 8.25263C1.96224 8.76603 1.96596 9.04876 1.96596 9.10085C1.96596 9.15293 1.96224 9.43939 1.9548 9.96022C1.9548 10.4736 1.9548 10.8642 1.9548 11.1321C1.96224 11.4 1.9734 11.7608 1.98828 12.2147C2.0106 12.6611 2.04781 13.0443 2.09989 13.3642C2.15941 13.6767 2.2301 13.9409 2.31194 14.1567C2.46075 14.5287 2.67653 14.8561 2.95926 15.1388C3.242 15.4215 3.56938 15.6373 3.94141 15.7861C4.15718 15.868 4.42132 15.9386 4.73382 15.9982C5.05376 16.0503 5.43694 16.0875 5.88337 16.1098C6.33724 16.1247 6.6981 16.1358 6.96596 16.1433C7.23382 16.1433 7.62444 16.1433 8.13784 16.1433C8.65867 16.1358 8.94513 16.1321 8.99721 16.1321C9.04929 16.1321 9.33203 16.1358 9.84542 16.1433C10.3663 16.1433 10.7606 16.1433 11.0285 16.1433C11.2963 16.1358 11.6535 16.1247 12.0999 16.1098C12.5538 16.0875 12.9369 16.0503 13.2494 15.9982C13.5694 15.9386 13.8372 15.868 14.053 15.7861C14.425 15.6373 14.7524 15.4215 15.0352 15.1388C15.3179 14.8561 15.5337 14.5287 15.6825 14.1567C15.7643 13.9409 15.8313 13.6767 15.8834 13.3642C15.9429 13.0443 15.9801 12.6611 15.995 12.2147C16.0173 11.7608 16.0285 11.4 16.0285 11.1321C16.0359 10.8642 16.0359 10.4736 16.0285 9.96022C16.0285 9.43939 16.0285 9.15293 16.0285 9.10085C16.0285 9.04876 16.0285 8.76603 16.0285 8.25263C16.0359 7.7318 16.0359 7.33746 16.0285 7.0696C16.0285 6.80174 16.0173 6.4446 15.995 5.99817C15.9801 5.5443 15.9429 5.16112 15.8834 4.84862C15.8313 4.52868 15.7643 4.26082 15.6825 4.04504C15.5337 3.67302 15.3179 3.34564 15.0352 3.0629C14.7524 2.78016 14.425 2.56439 14.053 2.41558C13.8372 2.33373 13.5694 2.26677 13.2494 2.21469C12.9369 2.15516 12.5538 2.11796 12.0999 2.10308C11.6535 2.08076 11.2963 2.0696 11.0285 2.0696C10.7606 2.06216 10.3663 2.06216 9.84542 2.0696ZM17.5128 5.5629C17.55 6.21766 17.5686 7.39698 17.5686 9.10085C17.5686 10.8047 17.55 11.984 17.5128 12.6388C17.4384 14.1864 16.9771 15.3843 16.1289 16.2325C15.2807 17.0808 14.0828 17.5421 12.5352 17.6165C11.8804 17.6537 10.7011 17.6723 8.99721 17.6723C7.29334 17.6723 6.11403 17.6537 5.45926 17.6165C3.91164 17.5421 2.71373 17.0808 1.86551 16.2325C1.0173 15.3843 0.55599 14.1864 0.481585 12.6388C0.444382 11.984 0.425781 10.8047 0.425781 9.10085C0.425781 7.39698 0.444382 6.21766 0.481585 5.5629C0.55599 4.01528 1.0173 2.81737 1.86551 1.96915C2.71373 1.12094 3.91164 0.659627 5.45926 0.585223C6.11403 0.54802 7.29334 0.529419 8.99721 0.529419C10.7011 0.529419 11.8804 0.54802 12.5352 0.585223C14.0828 0.659627 15.2807 1.12094 16.1289 1.96915C16.9771 2.81737 17.4384 4.01528 17.5128 5.5629Z" fill="white"/>
</svg>
