<svg width="247" height="40" viewBox="0 0 247 40" fill="none" xmlns="http://www.w3.org/2000/svg">
<path d="M107.946 17.3701C107.831 18.3455 107.538 19.2915 107.081 20.1604C106.898 20.3775 106.666 20.5469 106.403 20.6539C106.141 20.7608 105.856 20.8022 105.574 20.7743H104.555H103.244L101.849 20.9418C101.266 21.0299 100.673 21.0299 100.091 20.9418C99.9233 22.2114 99.7559 23.4949 99.6024 24.7785C99.3325 26.9399 98.8225 29.0644 98.0817 31.1127C97.2166 33.345 96.1563 34.4611 94.9006 34.4611C93.0404 34.4611 92.1103 32.2707 92.1103 27.8898C92.1103 26.7876 92.1103 25.5598 92.2916 24.1786C92.473 22.7974 92.473 22.1556 92.473 22.2393C92.473 22.323 92.473 22.0719 92.473 21.8905C92.4776 21.8546 92.4738 21.8181 92.4621 21.7839C92.4504 21.7497 92.431 21.7186 92.4054 21.693C92.3798 21.6674 92.3487 21.648 92.3145 21.6363C92.2803 21.6246 92.2438 21.6209 92.2079 21.6254C91.6359 21.6254 90.0314 21.8068 87.4224 22.1556C84.8856 22.4803 82.3733 22.9744 79.9024 23.6345C79.3031 24.1891 78.7821 24.8228 78.3537 25.518C77.2934 26.9132 76.6655 27.7921 76.4702 28.0014L73.2892 32.2567C72.8293 32.9101 72.2251 33.4488 71.5234 33.8311C70.8218 34.2134 70.0415 34.4289 69.2432 34.4611C67.0248 34.4611 65.9226 33.4287 65.9226 31.3498C65.9226 29.6198 70.2151 24.8157 78.8002 16.9376L93.924 3.34845C94.6248 2.82983 95.4215 2.45521 96.2679 2.24625C97.1383 2.01837 98.0331 1.89657 98.9327 1.88351C99.4681 1.80649 100.014 1.91366 100.48 2.18744C100.947 2.46122 101.306 2.88535 101.5 3.39031C101.723 4.36881 101.808 5.37392 101.751 6.37601L100.928 16.5051H106.592C106.88 16.4922 107.164 16.5685 107.406 16.7233C107.648 16.8781 107.837 17.104 107.946 17.3701ZM92.6962 16.2679C92.5986 15.2215 92.487 14.1891 92.3753 13.1566C92.3668 12.1865 92.0216 11.2495 91.3987 10.5058C90.0664 11.5444 88.8585 12.7336 87.7991 14.0495C86.7667 15.3331 85.7343 16.6027 84.6879 17.8584L92.6962 16.2679Z" fill="#D65E2A"/>
<path d="M142.923 7.88279C142.923 9.57097 141.695 10.9662 139.24 12.0684C137.008 12.9854 134.661 13.5911 132.264 13.8681L128.078 14.2727C129.683 15.1517 131.287 16.0028 132.892 16.8538C134.881 17.8854 136.752 19.1298 138.472 20.565C139.198 21.1017 139.804 21.783 140.253 22.5658C140.702 23.3486 140.984 24.2161 141.081 25.1133C141.089 25.7146 140.98 26.3116 140.76 26.8713C140.453 27.5549 140.035 27.8898 139.491 27.8898C139.212 27.8898 138.416 27.1503 137.077 25.6435C136.383 24.7333 135.555 23.9336 134.622 23.2717L122.776 20.3139C121.83 20.2564 120.893 20.0879 119.986 19.8116C118.354 19.3512 117.531 18.8211 117.531 18.2211C117.531 16.2958 119.112 14.6076 122.274 13.1566C124.039 12.4807 125.836 11.894 127.66 11.3987C129.194 10.9382 130.352 10.5615 131.134 10.2546C132.451 9.81719 133.663 9.1091 134.691 8.17578C134.538 7.71537 133.91 7.47819 132.808 7.47819C129.877 7.61256 126.975 8.11888 124.172 8.98499C120.181 10.1011 117.977 11.1754 117.544 12.18C116.428 14.6262 114.656 18.6304 112.229 24.1925C111.678 25.7832 111.281 27.4231 111.043 29.0896C110.917 30.1221 110.778 31.1545 110.638 32.159C110.365 33.934 109.859 35.6651 109.131 37.3073C108.253 39.1071 107.178 40 105.895 40C105.349 39.9026 104.855 39.6161 104.499 39.1908C104.377 36.5123 104.635 33.8301 105.267 31.2243C105.657 29.8291 106.522 27.2619 107.89 23.7042C109.411 19.7698 110.68 16.1981 111.601 12.9473C111.017 12.734 110.421 12.5569 109.815 12.4171C108.992 12.18 108.573 11.9567 108.546 11.7614C108.509 11.0846 108.604 10.4071 108.825 9.76629C109.047 9.09522 109.224 8.41005 109.355 7.71537C109.355 7.71537 110.038 7.47819 111.322 6.98987C111.952 6.83524 112.533 6.52322 113.01 6.083C113.415 5.42726 113.847 4.79943 114.28 4.17159C114.58 3.87857 114.94 3.65344 115.334 3.51143C115.729 3.36942 116.15 3.31383 116.568 3.34843C116.735 3.34843 117.517 3.4461 118.912 3.64142C120.307 3.8228 121.13 3.92046 121.353 3.92046C122.207 3.73625 123.039 3.4651 123.837 3.11125C125.293 2.52884 126.779 2.02126 128.287 1.5905C130.129 1.08007 132.028 0.808111 133.938 0.781291C135.971 0.754127 137.969 1.30577 139.7 2.3718C140.692 2.90526 141.518 3.70191 142.086 4.67418C142.655 5.64645 142.944 6.75667 142.923 7.88279Z" fill="#D65E2A"/>
<path d="M177.858 2.12068C177.858 2.97175 176.938 3.7112 175.068 4.32508C174.038 4.71197 172.965 4.97426 171.873 5.10638C166.753 5.75163 161.689 6.77761 156.721 8.17579C156.663 8.74696 156.537 9.30907 156.345 9.85002C156.08 10.6871 155.912 11.2452 155.856 11.4405C155.173 14.1053 154.461 16.7841 153.777 19.4489C152.82 22.764 152.134 26.1515 151.727 29.578L151.615 34.5727C151.615 34.9215 151.238 35.2145 150.513 35.4238C150.089 35.5684 149.648 35.6529 149.201 35.6749C147.694 35.6749 146.955 34.4611 146.955 32.0335C147.063 30.1506 147.348 28.2821 147.806 26.4527C148.266 24.2762 148.685 22.6439 149.034 21.5556C149.486 19.7506 149.826 17.9194 150.052 16.0725C150.444 13.9654 150.705 11.836 150.834 9.69655C150.85 9.46236 150.796 9.22864 150.679 9.02498C150.563 8.82131 150.388 8.65688 150.178 8.55249L143.104 8.92919C141.974 9.19428 141.388 8.30136 141.388 6.22253C141.321 5.77914 141.371 5.32594 141.532 4.90759C141.694 4.48924 141.962 4.12018 142.309 3.83676C142.99 3.54451 143.732 3.42011 144.472 3.47401L145.378 3.55773L146.355 3.68329L170.743 0C172.403 0.195326 174.063 0.362749 175.696 0.530171C177.328 0.697593 177.858 1.31148 177.858 2.12068Z" fill="#D65E2A"/>
<path d="M12.0265 14.203C12.0433 14.4818 12.0433 14.7613 12.0265 15.0401C12.0075 15.226 11.9653 15.4088 11.9009 15.5842C11.8441 15.6905 11.7738 15.789 11.6917 15.8772C11.6186 15.9417 11.524 15.9765 11.4266 15.9749H4.45065V21.737H10.9522C11.0471 21.7369 11.1397 21.7661 11.2173 21.8207C11.3106 21.8992 11.3826 22 11.4266 22.1137C11.4928 22.2837 11.5351 22.4622 11.5522 22.6439C11.5695 22.918 11.5695 23.1929 11.5522 23.467C11.569 23.7411 11.569 24.016 11.5522 24.2902C11.5313 24.4803 11.4892 24.6675 11.4266 24.8482C11.363 24.9583 11.2716 25.0497 11.1615 25.1133C11.0884 25.1778 10.9939 25.2127 10.8964 25.211H4.38089V33.1915C4.38209 33.3081 4.34263 33.4216 4.26928 33.5124C4.17889 33.621 4.05703 33.699 3.92048 33.7356C3.70312 33.8068 3.4785 33.8536 3.25079 33.8751C2.89779 33.9002 2.54345 33.9002 2.19045 33.8751C1.83742 33.8994 1.48314 33.8994 1.13011 33.8751C0.902394 33.8536 0.677782 33.8068 0.460418 33.7356C0.322234 33.6875 0.201036 33.6003 0.111621 33.4845C0.0493705 33.4089 0.0105745 33.3167 6.35209e-06 33.2194V13.7984C-0.0142648 13.6052 0.0118598 13.4111 0.0767159 13.2285C0.141572 13.046 0.243738 12.8789 0.376707 12.738C0.63506 12.5238 0.961983 12.4099 1.29753 12.4171H11.3847C11.4862 12.4328 11.5795 12.4819 11.6498 12.5567C11.7356 12.647 11.8063 12.7507 11.8591 12.8636C11.9249 13.0434 11.9671 13.231 11.9847 13.4217C12.0132 13.6811 12.0272 13.942 12.0265 14.203Z" fill="#808285"/>
<path d="M19.9512 33.2613C19.9506 33.3692 19.911 33.4733 19.8396 33.5543C19.7408 33.6597 19.6155 33.7368 19.4768 33.7775C19.2639 33.8447 19.0438 33.8868 18.8211 33.903C18.4681 33.9282 18.1138 33.9282 17.7608 33.903C17.4124 33.9279 17.0627 33.9279 16.7144 33.903C16.4826 33.8864 16.2533 33.8443 16.0307 33.7775C15.8976 33.7335 15.7777 33.6567 15.6819 33.5543C15.6105 33.4733 15.5709 33.3692 15.5703 33.2613V13.0171C15.5733 12.9054 15.6125 12.7977 15.6819 12.7102C15.7884 12.6299 15.913 12.5772 16.0447 12.5567C16.2637 12.492 16.4877 12.4453 16.7144 12.4172C16.9934 12.4172 17.3422 12.4172 17.7608 12.4172C18.1933 12.4172 18.5421 12.4172 18.8211 12.4172C19.0623 12.4403 19.3006 12.4871 19.5326 12.5567C19.6698 12.5934 19.7949 12.6656 19.8954 12.766C19.9648 12.8535 20.004 12.9612 20.007 13.0729L19.9512 33.2613Z" fill="#808285"/>
<path d="M42.3021 32.3265C42.3102 32.5622 42.2624 32.7965 42.1626 33.0101C42.0889 33.185 41.985 33.3456 41.8556 33.4845C41.6996 33.6124 41.5192 33.7073 41.3255 33.7635C41.1229 33.8299 40.9108 33.8629 40.6976 33.8612H38.8002C38.462 33.8647 38.1247 33.8272 37.7956 33.7496C37.5068 33.6641 37.2401 33.5165 37.0143 33.3171C36.7495 33.0756 36.5195 32.7986 36.3307 32.4939C36.0604 32.0419 35.8136 31.5762 35.5912 31.0987L30.2477 21.0813C29.9407 20.4814 29.6338 19.8396 29.3129 19.142C28.992 18.4444 28.699 17.7468 28.4479 17.1329C28.4479 17.9282 28.5176 18.7234 28.5456 19.5047C28.5735 20.286 28.5456 21.1231 28.5456 21.9603V33.1217C28.5478 33.2256 28.5186 33.3277 28.4618 33.4147C28.3773 33.5171 28.2663 33.5943 28.1409 33.638C27.9474 33.7086 27.7459 33.7555 27.541 33.7775C27.2159 33.8021 26.8895 33.8021 26.5644 33.7775C26.244 33.8026 25.9221 33.8026 25.6017 33.7775C25.3962 33.7589 25.1943 33.712 25.0018 33.638C24.884 33.5945 24.7819 33.5168 24.7088 33.4147C24.652 33.3277 24.6229 33.2256 24.6251 33.1217V13.9519C24.6124 13.7364 24.6499 13.5209 24.7347 13.3224C24.8194 13.1239 24.9491 12.9478 25.1134 12.8078C25.4242 12.5439 25.822 12.4047 26.2295 12.4172H28.5735C28.9303 12.4059 29.2871 12.4435 29.6338 12.5288C29.9102 12.5929 30.1711 12.7115 30.4012 12.8776C30.6521 13.0676 30.8691 13.2988 31.0429 13.5612C31.272 13.9096 31.4771 14.2732 31.6568 14.6495L35.8424 22.4904C36.0796 22.9648 36.3307 23.4252 36.5679 23.8856C36.8051 24.346 37.0283 24.8064 37.2515 25.2808L37.8933 26.676C38.1026 27.1085 38.3119 27.555 38.5072 28.0712C38.5072 27.2899 38.5072 26.4807 38.4374 25.6435C38.3677 24.8064 38.4374 24.0112 38.4374 23.2438V13.059C38.4402 12.9538 38.4742 12.8518 38.5351 12.766C38.6074 12.678 38.6978 12.6067 38.8002 12.5567C38.9967 12.4797 39.2036 12.4327 39.4141 12.4172C39.7394 12.4001 40.0654 12.4001 40.3907 12.4172C40.7067 12.4003 41.0234 12.4003 41.3394 12.4172C41.5412 12.4304 41.7393 12.4776 41.9254 12.5567C42.0446 12.6046 42.1467 12.6873 42.2184 12.7939C42.2751 12.8809 42.3043 12.983 42.3021 13.0869V32.3265Z" fill="#808285"/>
<path d="M59.6721 32.0893C59.6957 32.3585 59.6957 32.6293 59.6721 32.8985C59.6505 33.0736 59.6132 33.2463 59.5605 33.4147C59.5216 33.5311 59.4487 33.6331 59.3512 33.7077C59.2697 33.7668 59.1728 33.8007 59.0722 33.8054H48.2595C48.0779 33.8179 47.8958 33.7895 47.7266 33.7221C47.5575 33.6548 47.4057 33.5502 47.2824 33.4163C47.1591 33.2823 47.0676 33.1223 47.0145 32.9481C46.9615 32.774 46.9483 32.5901 46.9759 32.4102V13.7984C46.9455 13.618 46.9567 13.433 47.0088 13.2577C47.0608 13.0823 47.1522 12.9211 47.2761 12.7865C47.3999 12.6518 47.5529 12.5473 47.7234 12.4809C47.8938 12.4145 48.0772 12.3879 48.2595 12.4032H58.9606C59.0558 12.4012 59.1489 12.4306 59.2257 12.4869C59.3232 12.5615 59.396 12.6635 59.435 12.7799C59.4994 12.9505 59.5416 13.1287 59.5605 13.3101C59.5775 13.5795 59.5775 13.8498 59.5605 14.1193C59.5771 14.3841 59.5771 14.6497 59.5605 14.9145C59.5419 15.0914 59.4996 15.265 59.435 15.4308C59.396 15.5471 59.3232 15.6492 59.2257 15.7237C59.1502 15.7841 59.0572 15.8184 58.9606 15.8214H51.315V21.0673H57.7886C57.8879 21.067 57.985 21.0962 58.0677 21.151C58.1624 21.2282 58.2346 21.3294 58.277 21.444C58.3295 21.6076 58.3669 21.7758 58.3886 21.9463C58.4048 22.2111 58.4048 22.4767 58.3886 22.7415C58.4056 23.0063 58.4056 23.272 58.3886 23.5368C58.3669 23.7073 58.3295 23.8754 58.277 24.0391C58.2482 24.1446 58.1839 24.2369 58.095 24.3005C58.006 24.364 57.8978 24.3949 57.7886 24.3878H51.315V30.443H59.0304C59.1296 30.4427 59.2267 30.4718 59.3094 30.5267C59.4006 30.607 59.4722 30.7073 59.5187 30.8197C59.5711 30.9928 59.6084 31.1702 59.6303 31.3498C59.665 31.5947 59.679 31.8421 59.6721 32.0893Z" fill="#808285"/>
<path d="M179.979 14.203C179.996 14.4818 179.996 14.7613 179.979 15.0401C179.96 15.226 179.918 15.4088 179.854 15.5842C179.807 15.6966 179.735 15.7968 179.644 15.8772C179.609 15.9104 179.567 15.9361 179.522 15.9529C179.476 15.9697 179.428 15.9771 179.379 15.9749H172.403V21.737H178.975C179.07 21.735 179.163 21.7644 179.24 21.8207C179.337 21.8952 179.41 21.9973 179.449 22.1137C179.521 22.2828 179.568 22.4613 179.588 22.6439C179.606 22.918 179.606 23.1929 179.588 23.467C179.605 23.7411 179.605 24.016 179.588 24.2902C179.564 24.481 179.517 24.6682 179.449 24.8482C179.41 24.9646 179.337 25.0667 179.24 25.1412C179.204 25.1744 179.163 25.2002 179.117 25.2169C179.071 25.2337 179.023 25.2412 178.975 25.2389H172.403V33.2194C172.403 33.3336 172.369 33.4451 172.306 33.5403C172.207 33.6457 172.081 33.7228 171.943 33.7635C171.725 33.8347 171.501 33.8815 171.273 33.903C170.92 33.9281 170.566 33.9281 170.213 33.903C169.864 33.9278 169.515 33.9278 169.166 33.903C168.938 33.8831 168.714 33.8362 168.497 33.7635C168.358 33.7228 168.233 33.6457 168.134 33.5403C168.061 33.4495 168.021 33.336 168.022 33.2194V13.7984C168.008 13.6052 168.034 13.4111 168.099 13.2285C168.164 13.046 168.266 12.8789 168.399 12.738C168.657 12.5238 168.984 12.4099 169.32 12.4171H179.407C179.502 12.4151 179.595 12.4445 179.672 12.5008C179.767 12.5837 179.839 12.6893 179.881 12.8078C179.947 12.9876 179.989 13.1752 180.007 13.3659C180.014 13.6452 180.005 13.9248 179.979 14.203Z" fill="#808285"/>
<path d="M199.135 32.2288C199.241 32.5378 199.32 32.8551 199.372 33.1775C199.4 33.2669 199.403 33.3621 199.381 33.453C199.359 33.544 199.312 33.6272 199.247 33.6937C199.064 33.8394 198.838 33.9182 198.605 33.917C198.284 33.917 197.865 33.917 197.321 33.917H196.01C195.765 33.9089 195.522 33.8762 195.284 33.8193C195.151 33.7835 195.03 33.711 194.935 33.61C194.858 33.5055 194.801 33.3871 194.768 33.2612L193.373 28.9501H185.281L183.886 33.1357C183.85 33.2737 183.794 33.4054 183.718 33.5263C183.63 33.6409 183.508 33.7241 183.369 33.7635C183.15 33.8437 182.919 33.8861 182.686 33.8891C182.393 33.8891 182.016 33.8891 181.542 33.8891C181.142 33.9156 180.741 33.9156 180.342 33.8891C180.124 33.8854 179.915 33.8009 179.756 33.6519C179.697 33.5756 179.655 33.4874 179.634 33.3935C179.612 33.2996 179.611 33.2022 179.63 33.1078C179.696 32.7962 179.78 32.4887 179.881 32.1869L186.495 13.1705C186.546 13.0071 186.621 12.852 186.718 12.7101C186.833 12.5812 186.983 12.489 187.15 12.445C187.41 12.3774 187.677 12.3399 187.946 12.3334C188.294 12.3334 188.741 12.3334 189.341 12.3334C189.941 12.3334 190.513 12.3334 190.889 12.3334C191.195 12.3383 191.499 12.3757 191.796 12.445C191.975 12.4791 192.137 12.5725 192.257 12.7101C192.368 12.8624 192.453 13.0321 192.508 13.2124L199.135 32.2288ZM189.285 16.505L186.257 25.6156H192.34L189.285 16.505Z" fill="#808285"/>
<path d="M218.04 33.2891C218.041 33.3955 218.017 33.5007 217.97 33.5961C217.893 33.7034 217.778 33.778 217.649 33.8053C217.413 33.8743 217.169 33.9119 216.924 33.917C216.603 33.917 216.17 33.917 215.612 33.917C215.054 33.917 214.775 33.917 214.51 33.917C214.286 33.9145 214.064 33.872 213.854 33.7914C213.717 33.7566 213.595 33.6783 213.505 33.5682C213.442 33.4559 213.386 33.3394 213.338 33.2194L211.427 28.4339C211.189 27.8898 210.966 27.4154 210.743 27.0387C210.549 26.6553 210.3 26.3027 210.003 25.9923C209.748 25.7064 209.427 25.4862 209.069 25.3505C208.694 25.1921 208.29 25.1114 207.883 25.1133H206.488V33.2891C206.487 33.3971 206.447 33.5012 206.376 33.5821C206.283 33.6876 206.162 33.765 206.027 33.8053C205.809 33.871 205.585 33.913 205.358 33.9309C205.005 33.956 204.65 33.956 204.297 33.9309C203.949 33.9557 203.599 33.9557 203.251 33.9309C203.024 33.9145 202.799 33.8724 202.581 33.8053C202.445 33.7688 202.323 33.6908 202.232 33.5821C202.165 33.4998 202.13 33.3955 202.135 33.2891V13.7984C202.119 13.6062 202.142 13.4127 202.205 13.2302C202.267 13.0477 202.367 12.8801 202.497 12.738C202.756 12.5238 203.083 12.4099 203.418 12.4171H208.999H210.394L211.385 12.5008C212.185 12.6101 212.968 12.8211 213.715 13.1287C214.365 13.4133 214.96 13.81 215.473 14.3006C215.951 14.7877 216.326 15.3667 216.575 16.0028C216.839 16.7313 216.966 17.5022 216.952 18.2769C216.954 18.9372 216.865 19.5945 216.686 20.2302C216.504 20.8003 216.231 21.3374 215.877 21.8207C215.509 22.2904 215.066 22.6958 214.566 23.0206C214.017 23.3816 213.421 23.6634 212.794 23.8577C213.115 24.0117 213.419 24.1987 213.701 24.4157C213.996 24.6536 214.263 24.9251 214.496 25.2249C214.756 25.5647 214.989 25.9239 215.194 26.2992C215.436 26.7509 215.65 27.2168 215.835 27.6944L217.649 31.88C217.817 32.2985 217.928 32.6055 217.984 32.8008C218.027 32.9598 218.046 33.1245 218.04 33.2891ZM212.459 18.7513C212.482 18.1177 212.317 17.4914 211.985 16.9515C211.605 16.4272 211.042 16.0639 210.408 15.933C210.185 15.933 209.934 15.8353 209.655 15.7935C209.376 15.7516 208.985 15.7935 208.483 15.7935H206.488V21.8625H208.706C209.254 21.8745 209.8 21.7992 210.324 21.6393C210.754 21.522 211.15 21.3072 211.482 21.0115C211.792 20.7546 212.032 20.4234 212.18 20.0488C212.345 19.6366 212.426 19.1953 212.417 18.7513H212.459Z" fill="#808285"/>
<path d="M246.223 33.2612C246.22 33.3664 246.186 33.4684 246.125 33.5542C246.04 33.6626 245.923 33.7409 245.79 33.7775C245.586 33.8433 245.376 33.8854 245.162 33.903C244.823 33.9278 244.483 33.9278 244.144 33.903C243.814 33.9276 243.483 33.9276 243.153 33.903C242.94 33.8854 242.729 33.8433 242.525 33.7775C242.396 33.7336 242.281 33.6566 242.19 33.5542C242.123 33.4719 242.088 33.3676 242.093 33.2612V15.8075L235.787 33.2473C235.748 33.3795 235.676 33.4995 235.577 33.5961C235.461 33.7005 235.323 33.7769 235.173 33.8193C234.96 33.8839 234.739 33.9214 234.517 33.9309H233.554C233.234 33.9474 232.912 33.9474 232.592 33.9309C232.368 33.915 232.147 33.868 231.936 33.7914C231.788 33.7433 231.651 33.6675 231.531 33.5682C231.437 33.488 231.369 33.3809 231.336 33.2612L225.337 15.8214V33.2612C225.334 33.3664 225.3 33.4684 225.239 33.5542C225.152 33.6599 225.035 33.7376 224.904 33.7775C224.695 33.8407 224.48 33.8828 224.262 33.903C223.928 33.928 223.592 33.928 223.258 33.903C222.928 33.9276 222.597 33.9276 222.267 33.903C222.049 33.8841 221.834 33.842 221.625 33.7775C221.496 33.7336 221.381 33.6566 221.291 33.5542C221.234 33.4672 221.205 33.3651 221.207 33.2612V14.1472C221.192 13.9142 221.223 13.6806 221.3 13.4601C221.377 13.2396 221.497 13.0368 221.653 12.8636C221.811 12.7132 221.997 12.5962 222.201 12.5195C222.405 12.4428 222.622 12.408 222.839 12.4172H225.63C226.065 12.4105 226.501 12.4526 226.927 12.5427C227.27 12.6131 227.593 12.7558 227.876 12.9613C228.151 13.1609 228.38 13.4179 228.546 13.7147C228.735 14.0904 228.889 14.4827 229.006 14.8866L233.638 27.6526H233.708L238.577 14.9145C238.694 14.5106 238.848 14.1183 239.037 13.7426C239.192 13.4504 239.395 13.1863 239.637 12.9613C239.872 12.7625 240.149 12.6194 240.446 12.5427C240.798 12.4546 241.159 12.4124 241.521 12.4172H244.451C244.711 12.4137 244.97 12.4514 245.218 12.5288C245.419 12.6024 245.6 12.7212 245.748 12.8761C245.895 13.0309 246.005 13.2176 246.069 13.4217C246.144 13.6561 246.182 13.901 246.181 14.1472L246.223 33.2612Z" fill="#808285"/>
</svg>
